<svg viewBox="0 0 100 100" xmlns="http://www.w3.org/2000/svg">
    <defs>
        <linearGradient id="gradLogo" x1="0%" y1="0%" x2="100%" y2="100%">
            <stop offset="0%" style="stop-color:#3B82F6" />
            <stop offset="100%" style="stop-color:#8B5CF6" />
        </linearGradient>
    </defs>
    <g fill="none" stroke="url(#gradLogo)" stroke-width="3" stroke-linecap="round">
        <path d="M35 40 L50 50 L65 40" stroke-width="4"/>
        <rect x="35" y="40" width="30" height="20" rx="2" stroke-width="4"/>
        <g transform="translate(50,50)">
            <circle cx="0" cy="0" r="35" stroke-width="2" stroke-opacity="0.5"/>
            <circle cx="0" cy="0" r="45" stroke-width="2" stroke-opacity="0.3"/>
            <path d="M0 25 L0 40" transform="rotate(0)" />
            <path d="M0 25 L0 40" transform="rotate(45)" />
            <path d="M0 25 L0 40" transform="rotate(90)" />
            <path d="M0 25 L0 40" transform="rotate(135)" />
            <path d="M0 25 L0 40" transform="rotate(180)" />
            <path d="M0 25 L0 40" transform="rotate(225)" />
            <path d="M0 25 L0 40" transform="rotate(270)" />
            <path d="M0 25 L0 40" transform="rotate(315)" />
            <circle cx="0" cy="40" r="3" transform="rotate(22.5)" stroke-width="2"/>
            <circle cx="0" cy="40" r="3" transform="rotate(67.5)" stroke-width="2"/>
            <circle cx="0" cy="40" r="3" transform="rotate(112.5)" stroke-width="2"/>
            <circle cx="0" cy="40" r="3" transform="rotate(157.5)" stroke-width="2"/>
            <circle cx="0" cy="40" r="3" transform="rotate(202.5)" stroke-width="2"/>
            <circle cx="0" cy="40" r="3" transform="rotate(247.5)" stroke-width="2"/>
            <circle cx="0" cy="40" r="3" transform="rotate(292.5)" stroke-width="2"/>
            <circle cx="0" cy="40" r="3" transform="rotate(337.5)" stroke-width="2"/>
        </g>
    </g>
</svg>
